<svg id="Layer_1" data-name="Layer 1" xmlns="http://www.w3.org/2000/svg" viewBox="0 0 700.46 491.99"><defs><style>.cls-1{font-size:24px;font-family:Ubuntu, Ubuntu;}.cls-2{fill:#370d51;}.cls-3{fill:#570c85;}.cls-4{fill:#ce9ddb;}.cls-5{fill:#84329b;}.cls-6{fill:#ac64c8;}</style></defs><title>employees</title><text class="cls-1" transform="translate(529.47 131.12)">&lt; 50 </text><text class="cls-1" transform="translate(524.59 363.16)">50 - 100</text><text class="cls-1" transform="translate(412.99 449.18)">100 - 200</text><text class="cls-1" transform="translate(174.36 451.88)">200 - 500</text><text class="cls-1" transform="translate(84.25 196.87)">&gt; 500</text><path class="cls-2" d="M484.42,205.9c17.85-4.36,35.8-8.25,53.87-11.49C520.56,108.65,445.66,43.81,355.22,41.51c0,18.38,0,36.75-.89,55.08A137,137,0,0,1,484.42,205.9Z"/><path class="cls-3" d="M432.06,343.34c10.77,14.87,22.09,29.33,33.36,43.83a192.2,192.2,0,0,0,74.94-180.87c-18.13,3.28-36.14,7.22-54,11.63a138.39,138.39,0,0,1,.88,15.56A136.77,136.77,0,0,1,432.06,343.34Z"/><path class="cls-4" d="M218.17,372.92c13.67-12.41,27.58-24.56,41.55-36.63A137,137,0,0,1,342.3,96.76c.94-18.36.83-36.79.78-55.16-102.75,3.77-184.89,88.24-184.89,191.9A191.5,191.5,0,0,0,218.17,372.92Z"/><path class="cls-5" d="M371.26,424.4a190.93,190.93,0,0,0,84.29-30.3c-11.3-14.55-22.67-29.05-33.5-44a136.14,136.14,0,0,1-56.91,19.52C366.3,388,368.81,406.19,371.26,424.4Z"/><path class="cls-6" d="M353,370.42c-.93,0-1.87,0-2.81,0A136.35,136.35,0,0,1,269.31,344c-14.13,12.2-28.19,24.48-42,37a191.26,191.26,0,0,0,122.94,44.51c3,0,6-.08,9-.22C356.78,407.06,354.24,388.8,353,370.42Z"/></svg>