<svg id="Layer_1" data-name="Layer 1" xmlns="http://www.w3.org/2000/svg" viewBox="0 0 729 491.99"><defs><style>.cls-1{font-size:24px;font-family:Ubuntu, Ubuntu;}.cls-2{letter-spacing:-0.01em;}.cls-3{fill:#ac64c8;}.cls-4{fill:#370d51;}</style></defs><title>gender</title><text class="cls-1" transform="translate(592.67 236.73)">Male</text><text class="cls-1" transform="translate(80.23 282.21)"><tspan class="cls-2">F</tspan><tspan x="12.55" y="0">emale</tspan></text><path class="cls-3" d="M449.45,359.19A133.76,133.76,0,1,1,368.93,114.1c-.19-20-.79-40-1-60-103.48,4-186.16,89.11-186.16,193.57,0,107,86.74,193.73,193.73,193.73a192.83,192.83,0,0,0,108.73-33.37C473.17,391.41,461.8,374.91,449.45,359.19Z"/><path class="cls-4" d="M509.3,247.7A133.5,133.5,0,0,1,459.22,352c12.34,15.75,23.75,32.24,34.87,48.88A193.4,193.4,0,0,0,569.27,247.7C569.27,142.23,485,56.45,380.12,54c.15,20,.69,40,.84,60A133.75,133.75,0,0,1,509.3,247.7Z"/></svg>