<svg id="Layer_1" data-name="Layer 1" xmlns="http://www.w3.org/2000/svg" viewBox="0 0 665.06 431.01"><defs><style>.cls-1{fill:#370d51;}.cls-2{fill:#e4c9ed;}.cls-3{fill:#84329b;}.cls-4{fill:#ce9ddb;}.cls-5{fill:#ac64c8;}.cls-6{fill:#570c85;}.cls-7{font-size:24px;font-family:Ubuntu, Ubuntu;}.cls-8{letter-spacing:-0.02em;}.cls-9{letter-spacing:-0.01em;}</style></defs><title>industry</title><path class="cls-1" d="M475.14,224a137.78,137.78,0,0,1-4.91,36.54c7.28,3.44,14.38,7.29,21.46,11.14,9.09,4.95,18.32,9.56,27.66,14A191.76,191.76,0,0,0,529.47,224c0-104.23-83.06-189.06-186.61-191.91V86.44A137.66,137.66,0,0,1,475.14,224Z" transform="translate(-19.59 -32.07)"/><path class="cls-2" d="M201,266.71c1.69-.49,3.38-1,5.07-1.43A137.76,137.76,0,0,1,330.71,86.49V32.13C227.81,35.69,145.49,120.22,145.49,224a192,192,0,0,0,8.07,55.2C169.62,276.11,185.37,271.24,201,266.71Z" transform="translate(-19.59 -32.07)"/><path class="cls-3" d="M368,413.55a190.77,190.77,0,0,0,69.74-25.85c-11.48-14.23-23-28.4-33.81-43.17a136.75,136.75,0,0,1-49.45,16.05C358.28,378.42,362.89,396.06,368,413.55Z" transform="translate(-19.59 -32.07)"/><path class="cls-4" d="M237.35,387.82c9.45-15.49,18.56-31.17,26.61-47.44a138.18,138.18,0,0,1-53.67-63.64q-3.92,1.09-7.82,2.21c-14.91,4.32-29.86,8.74-45.07,11.76A192.63,192.63,0,0,0,237.35,387.82Z" transform="translate(-19.59 -32.07)"/><path class="cls-5" d="M342.34,361.56c-1.61.06-3.23.09-4.86.09a137,137,0,0,1-63-15.24c-8,16.27-17.14,31.95-26.6,47.44A191.13,191.13,0,0,0,337.48,416q9.29,0,18.35-.87C350.66,397.42,346.06,379.59,342.34,361.56Z" transform="translate(-19.59 -32.07)"/><path class="cls-6" d="M447.87,381.07a192.67,192.67,0,0,0,67.2-84c-9.16-4.29-18.23-8.74-27.12-13.57-7.11-3.86-14.19-7.82-21.47-11.34a138.08,138.08,0,0,1-52.17,66.07C425,352.87,436.46,366.95,447.87,381.07Z" transform="translate(-19.59 -32.07)"/><text class="cls-7" transform="translate(509.88 99.04)"><tspan class="cls-8">E</tspan><tspan x="13.3" y="0">ducation - 28</tspan></text><text class="cls-7" transform="translate(488.12 331.09)">G<tspan class="cls-9" x="16.13" y="0">ov</tspan><tspan x="41.66" y="0">ernment - 7</tspan></text><text class="cls-7" transform="translate(384.06 408.72)">Finance - 4</text><text class="cls-7" transform="translate(140.38 426.48)">Heathcare - 6</text><text class="cls-7" transform="translate(0 340.46)">Non profit - 7</text><text class="cls-7" transform="translate(16.99 99.04)">Other - 27</text></svg>