<svg id="Layer_1" data-name="Layer 1" xmlns="http://www.w3.org/2000/svg" viewBox="0 0 729 491.99"><defs><style>.cls-1{font-size:24px;font-family:Ubuntu, Ubuntu;}.cls-2{letter-spacing:0.02em;}.cls-3{letter-spacing:-0.01em;}.cls-4{fill:#370d51;}.cls-5{fill:#570c85;}.cls-6{fill:#84329b;}.cls-7{fill:#ac64c8;}</style></defs><title>level</title><text class="cls-1" transform="translate(558 131.12)">Ent<tspan class="cls-2" x="37.13" y="0">r</tspan><tspan x="46.89" y="0">y-le</tspan><tspan class="cls-3" x="85.97" y="0">v</tspan><tspan x="97.68" y="0">el</tspan></text><text class="cls-1" transform="translate(311.79 462.92)">Mid-le<tspan class="cls-3" x="68.25" y="0">v</tspan><tspan x="79.97" y="0">el</tspan></text><text class="cls-1" transform="translate(67.01 160.19)">Upper <tspan x="-38.41" y="28.8">management</tspan></text><text class="cls-1" transform="translate(202.89 63.22)">Other</text><path class="cls-4" d="M385.17,103.28A137,137,0,0,1,515.74,240.09q0,3.71-.2,7.38c18.16,4.13,36.14,9,54.08,14a194.09,194.09,0,0,0,1.19-21.41c0-104-82.74-188.75-186-191.94C385.07,66.55,385.92,84.93,385.17,103.28Z"/><path class="cls-5" d="M514.34,259.66a137,137,0,0,1-272.42-13.91H186.81c3,103.45,87.78,186.4,192,186.4,94.62,0,173.26-68.43,189.12-158.5C550.12,268.68,532.32,263.8,514.34,259.66Z"/><path class="cls-6" d="M244.61,144.13c-6.53-6-13.38-12.36-21.07-17.1a191.09,191.09,0,0,0-36.69,106.56H242a136.22,136.22,0,0,1,23.77-70.84C258.62,156.62,251.53,150.49,244.61,144.13Z"/><path class="cls-7" d="M372.67,48.15a191.63,191.63,0,0,0-141.74,69.37,150.31,150.31,0,0,1,19.32,15.32c7.54,6.81,15.15,13.51,22.8,20.18a136.69,136.69,0,0,1,100.18-49.78C374,84.92,373,66.49,372.67,48.15Z"/></svg>