<?xml version="1.0" encoding="utf-8"?>
<!-- Generator: Adobe Illustrator 20.0.0, SVG Export Plug-In . SVG Version: 6.00 Build 0)  -->
<svg version="1.1" id="Layer_1" xmlns="http://www.w3.org/2000/svg" xmlns:xlink="http://www.w3.org/1999/xlink" x="0px" y="0px"
	 viewBox="0 0 309.3 309.3" style="enable-background:new 0 0 309.3 309.3;" xml:space="preserve">
<style type="text/css">
	.st0{fill:#00629B;}
	.st1{fill:#002C4F;}
	.st2{fill:#FFFFFF;}
</style>
<g>
	<path class="st0" d="M38.7,0h164.2l87,86.7v203.2c0,10.7-8.7,19.3-19.3,19.3H38.7c-10.7,0-19.3-8.6-19.3-19.3V19.3
		C19.3,8.6,28,0,38.7,0z"/>
	<path class="st1" d="M289.7,87h-67.4c-10.7,0-19.3-8.7-19.3-19.3V0.2L289.7,87z"/>
	<path class="st2" d="M57,116v158.6h195.2V116H57z M203.4,128.2v24.4H179v-24.4H203.4z M130.2,189.3h-24.4v-24.4h24.4V189.3z
		 M142.4,164.9h24.4v24.4h-24.4V164.9z M130.2,201.5v24.4h-24.4v-24.4H130.2z M142.4,201.5h24.4v24.4h-24.4V201.5z M179,201.5h24.4
		v24.4H179V201.5z M179,189.3v-24.4h24.4v24.4L179,189.3L179,189.3z M166.8,128.2v24.4h-24.4v-24.4H166.8z M130.2,128.2v24.4h-24.4
		v-24.4H130.2z M69.2,128.2h24.4v24.4H69.2V128.2z M69.2,164.9h24.4v24.4H69.2V164.9z M69.2,201.5h24.4v24.4H69.2V201.5z
		 M69.2,262.5v-24.4h24.4v24.4H69.2z M105.8,262.5v-24.4h24.4v24.4H105.8z M142.4,262.5v-24.4h24.4v24.4H142.4z M179,262.5v-24.4
		h24.4v24.4H179z M240.1,262.5h-24.4v-24.4h24.4V262.5z M240.1,225.9h-24.4v-24.4h24.4V225.9z M240.1,189.3h-24.4v-24.4h24.4V189.3z
		 M240.1,152.7h-24.4v-24.4h24.4V152.7z"/>
</g>
</svg>
