<?xml version="1.0" encoding="utf-8"?>
<!-- Generator: Adobe Illustrator 20.0.0, SVG Export Plug-In . SVG Version: 6.00 Build 0)  -->
<svg version="1.1" id="Capa_1" xmlns="http://www.w3.org/2000/svg" xmlns:xlink="http://www.w3.org/1999/xlink" x="0px" y="0px"
	 viewBox="0 0 347.9 409" style="enable-background:new 0 0 347.9 409;" xml:space="preserve">
<style type="text/css">
	.st0{fill:#002C4F;stroke:#FFFFFF;stroke-width:4;stroke-miterlimit:10;}
	.st1{fill:none;stroke:#5595B5;stroke-width:4;stroke-miterlimit:10;}
	.st2{fill:#FFFFFF;}
	.st3{fill:none;stroke:#FFFFFF;stroke-width:2;stroke-miterlimit:10;}
</style>
<rect x="49.4" y="50.2" class="st0" width="298.5" height="358.8"/>
<rect x="24.8" y="25.9" class="st0" width="298.5" height="358.8"/>
<rect class="st0" width="298.5" height="358.8"/>
<g>
	<line class="st1" x1="56.7" y1="110.1" x2="252.5" y2="110.1"/>
	<line class="st1" x1="56.7" y1="151.1" x2="251.5" y2="151.1"/>
	<line class="st1" x1="56.7" y1="192.1" x2="250.8" y2="192.1"/>
	<line class="st1" x1="56.7" y1="233.1" x2="250.8" y2="233.1"/>
	<line class="st1" x1="56.7" y1="274.1" x2="250.8" y2="274.1"/>
	<line class="st1" x1="56.7" y1="315.1" x2="250.8" y2="315.1"/>
</g>
<g>
	<circle class="st2" cx="66.1" cy="52.1" r="4.8"/>
	<circle class="st2" cx="98.2" cy="68.9" r="4.8"/>
	<circle class="st2" cx="120.3" cy="47.4" r="4.8"/>
	<circle class="st2" cx="210.6" cy="59.4" r="4.8"/>
	<circle class="st2" cx="190.2" cy="35" r="4.8"/>
	<circle class="st2" cx="178.2" cy="82.6" r="4.8"/>
	<circle class="st2" cx="163.1" cy="52.1" r="4.8"/>
	<circle class="st2" cx="235.6" cy="65.5" r="4.8"/>
	<line class="st3" x1="66.1" y1="52.1" x2="98.2" y2="68.9"/>
	<line class="st3" x1="120.3" y1="47.4" x2="98.2" y2="68.9"/>
	<line class="st3" x1="163.1" y1="52.1" x2="120.3" y2="47.4"/>
	<line class="st3" x1="178.2" y1="82.6" x2="163.1" y2="52.1"/>
	<line class="st3" x1="190.2" y1="35" x2="178.2" y2="82.6"/>
	<line class="st3" x1="210.6" y1="59.4" x2="190.2" y2="35"/>
	<line class="st3" x1="235.6" y1="65.5" x2="210.6" y2="59.4"/>
</g>
</svg>
