<?xml version="1.0" encoding="utf-8"?>
<!-- Generator: Adobe Illustrator 20.0.0, SVG Export Plug-In . SVG Version: 6.00 Build 0)  -->
<svg version="1.1" id="Capa_1" xmlns="http://www.w3.org/2000/svg" xmlns:xlink="http://www.w3.org/1999/xlink" x="0px" y="0px"
	 viewBox="0 0 60 60" style="enable-background:new 0 0 60 60;" xml:space="preserve">
<style type="text/css">
	.st0{fill:#002C4F;}
	.st1{fill:#7FABDA;stroke:#7383BF;stroke-width:2;stroke-linecap:round;stroke-miterlimit:10;}
	.st2{fill:#5595B5;}
	.st3{fill:none;stroke:#FFFFFF;stroke-width:2;stroke-linecap:round;stroke-miterlimit:10;}
</style>
<path class="st0" d="M50,22c-0.1-8.7-7.2-16-15.9-16c-5.6,0-10.8,3-13.7,7.3C19.2,12.5,17.6,12,16,12c-4.4,0-8,3.6-8,8
	c0,0.2,0,0.3,0,0.5c0,0.2,0,0.4,0,0.5c-4,1.9-7,6.5-7,11.2C1,38.7,6.3,44,12.8,44h24.5c0.1,0,0.3,0,0.4,0c0.1,0,0.3,0,0.4,0H48
	c6.1,0,11-5,11-11C59,27.6,55.1,23,50,22z"/>
<path class="st1" d="M45,22"/>
<path class="st1" d="M50,22"/>
<path class="st1" d="M24,20"/>
<path class="st1" d="M16,12"/>
<path class="st1" d="M8,20"/>
<polygon class="st2" points="15.6,55 30,30.4 44.4,55 "/>
<line class="st3" x1="30" y1="38" x2="30" y2="46"/>
<line class="st3" x1="30" y1="50" x2="30" y2="51"/>
</svg>
