<?xml version="1.0" encoding="utf-8"?>
<!-- Generator: Adobe Illustrator 20.0.0, SVG Export Plug-In . SVG Version: 6.00 Build 0)  -->
<svg version="1.1" id="Capa_1" xmlns="http://www.w3.org/2000/svg" xmlns:xlink="http://www.w3.org/1999/xlink" x="0px" y="0px"
	 viewBox="0 0 491.1 491.1" style="enable-background:new 0 0 491.1 491.1;" xml:space="preserve">
<style type="text/css">
	.st0{fill:#002C4F;}
	.st1{fill:#5595B5;}
</style>
<g>
	<path class="st0" d="M287.6,294.8c0-12.2,2.5-23.9,6.9-34.5L252,247.6c-18.6,22.1-42,37.3-68.4,37.3c-26.5,0-49.9-15.2-68.4-37.3
		l-69.9,20.8c-13.6,4-22.8,16.5-22.8,30.6v26.5c0,89,72.2,161.1,161.1,161.1c31.8,0,61.3-9.3,86.3-25.2V347.9
		c0-13.6,6.9-25.8,17.8-33L287.6,294.8L287.6,294.8z"/>
	<path class="st1" d="M450.9,325v-30.2c0-40.6-33-73.6-73.6-73.6c-40.6,0-73.6,33-73.6,73.6V325c-10.2,2.6-17.8,11.8-17.8,22.9
		v119.5c0,13.1,10.6,23.7,23.7,23.7H445c13.1,0,23.7-10.6,23.7-23.7V347.9C468.7,336.9,461.1,327.7,450.9,325z M393.3,417.2v27.1
		c0,8.8-7.2,16-16,16c-8.8,0-16-7.2-16-16v-27.1c-8.5-5.3-14.1-14.7-14.1-25.5c0-16.7,13.5-30.2,30.2-30.2
		c16.7,0,30.2,13.5,30.2,30.2C407.5,402.5,401.8,411.9,393.3,417.2z M418.9,324.2h-83.2v-29.4c0-23,18.7-41.6,41.6-41.6
		c23,0,41.6,18.7,41.6,41.6V324.2z"/>
	<path class="st0" d="M80.7,184.2c6.2,7.8,14.1,12.5,21.7,12.4c17.1,39.1,47.1,72.7,81.5,72.7c34.4,0,64.4-33.6,81.5-72.7
		c7.6,0.1,15.5-4.6,21.7-12.4c3.3-4.1,6.1-9,8.1-14.7c3.7-10.6,3.6-21.1,0.7-29.2c-2.3-6.3-6.3-11.2-11.9-13.1
		c-0.9,0.3-1.8,0.6-2.8,0.7c-0.3,0-0.6,0-0.9,0c-1.8,0-3.5-0.6-5.1-1.3c-3-1.5-5.5-4-6.5-7.4c-0.2-0.8-6.4-19.8-42.5-19.8
		c-3.5,0-7.1,0.2-11,0.5c0,0-3.8,0.3-9.6,0.3c-19.3,0-45.2-3.3-59.5-19.2c-3-3.4-5.3-7.1-6.9-11.2c-13.4,8.5-32.6,24.5-40,49.7
		c-0.9,3.2-3.2,5.6-5.9,7.1c-1.7,0.9-3.6,1.6-5.6,1.6c-0.5,0-0.9,0-1.4-0.1c-1-0.1-1.8-0.5-2.7-0.8c-5.5,2-9.4,6.8-11.7,13
		c-2.9,8.1-3,18.6,0.7,29.2C74.5,175.1,77.4,180,80.7,184.2z"/>
	<path class="st0" d="M148.7,51.2c-3.7,33.4,38.3,37,56.8,37c5.2,0,8.6-0.3,8.6-0.3c4.3-0.4,8.3-0.6,12-0.6
		c47,0,54.1,28.7,54.1,28.7l2.9-21.6c6.1-45.4-25.5-87.3-70.8-93.8c-2.6-0.4-5.3-0.6-7.9-0.6c-15.1,0-29.8,6.2-40.3,17.4l-0.8,0.9
		c-7-3.2-14.4-4.7-21.8-4.7c-10.6,0-21.2,3.2-30.2,9.6c-17.1,12.1-26.8,32-25.8,52.9l2,40.1C101.3,69.6,148.7,51.2,148.7,51.2z"/>
</g>
</svg>
