<?xml version="1.0" encoding="utf-8"?>
<!-- Generator: Adobe Illustrator 20.0.0, SVG Export Plug-In . SVG Version: 6.00 Build 0)  -->
<svg version="1.1" id="Layer_1" xmlns="http://www.w3.org/2000/svg" xmlns:xlink="http://www.w3.org/1999/xlink" x="0px" y="0px"
	 viewBox="0 0 960 398" style="enable-background:new 0 0 960 398;" xml:space="preserve">
<style type="text/css">
	.st0{clip-path:url(#SVGID_2_);}
	.st1{fill:#FFFFFF;}
	.st2{fill-opacity:0;}
</style>
<g>
	<defs>
		<rect id="SVGID_1_" y="-142" width="960" height="540"/>
	</defs>
	<clipPath id="SVGID_2_">
		<use xlink:href="#SVGID_1_"  style="overflow:visible;"/>
	</clipPath>
	<g class="st0">
		<path class="st1" d="M0-142h960v540H0V-142z"/>
		<path class="st2" d="M487.3,28.3h447.5v263H487.3V28.3z"/>
		<g>
			<g transform="matrix(0.46619343832020993 0.0 0.0 0.4695908136482939 487.2995283464567 170.26643674540682)">
				<defs>
					<rect id="SVGID_3_" x="256.2" y="-153.9" width="447.5" height="263"/>
				</defs>
				<clipPath id="SVGID_4_">
					<use xlink:href="#SVGID_3_"  style="overflow:visible;"/>
				</clipPath>
				<g style="clip-path:url(#SVGID_4_);enable-background:new    ;">
					
						<image style="overflow:visible;" width="960" height="560" xlink:href="5B513C11AEF2ABC8.jpeg"  transform="matrix(1 0 0 1 0 -302.3908)">
					</image>
				</g>
			</g>
			<path class="st2" d="M-992.2-302.4h960v560h-960L-992.2-302.4z"/>
			<g>
				<g transform="matrix(0.46619343832020993 0.0 0.0 0.469596062992126 24.724409186351707 170.26509238845145)">
					<defs>
						<rect id="SVGID_5_" x="-1375.6" y="-541.7" width="447.5" height="263"/>
					</defs>
					<clipPath id="SVGID_6_">
						<use xlink:href="#SVGID_5_"  style="overflow:visible;"/>
					</clipPath>
					<g style="clip-path:url(#SVGID_6_);enable-background:new    ;">
						
							<image style="overflow:visible;" width="960" height="560" xlink:href="5B513C11AEF2ABC8.jpeg"  transform="matrix(2.145 0 0 2.1295 -2181.4226 -1006.5221)">
						</image>
					</g>
				</g>
			</g>
		</g>
	</g>
</g>
</svg>
