<?xml version="1.0" encoding="utf-8"?>
<!-- Generator: Adobe Illustrator 20.0.0, SVG Export Plug-In . SVG Version: 6.00 Build 0)  -->
<svg version="1.1" id="Layer_1" xmlns="http://www.w3.org/2000/svg" xmlns:xlink="http://www.w3.org/1999/xlink" x="0px" y="0px"
	 viewBox="0 0 231 157.8" style="enable-background:new 0 0 231 157.8;" xml:space="preserve">
<style type="text/css">
	.st0{fill:#212121;}
	.st1{fill:none;stroke:#212121;stroke-miterlimit:10;}
	.st2{fill:none;stroke:#212121;stroke-width:6;stroke-miterlimit:10;}
</style>
<title>Introspect</title>
<circle class="st0" cx="43.7" cy="106.9" r="7.7"/>
<circle class="st0" cx="95.1" cy="84.9" r="7.7"/>
<circle class="st0" cx="145.9" cy="7.7" r="7.7"/>
<circle class="st0" cx="173.5" cy="81.8" r="7.7"/>
<circle class="st0" cx="220.4" cy="29" r="7.7"/>
<line class="st1" x1="43.7" y1="106.9" x2="95.1" y2="84.9"/>
<line class="st1" x1="95.1" y1="84.9" x2="145.9" y2="7.7"/>
<line class="st1" x1="201" y1="50.9" x2="220.4" y2="29"/>
<line class="st1" x1="145.9" y1="7.7" x2="159.3" y2="43.4"/>
<path class="st0" d="M173.6,43.4c-20.6,0-37.3,16.7-37.3,37.3s16.7,37.3,37.3,37.3s37.3-16.7,37.3-37.3c0,0,0,0,0,0
	C210.9,60.2,194.2,43.4,173.6,43.4z M173.6,110c-15.9,0-28.8-12.9-28.8-28.9s12.9-28.8,28.9-28.8c15.9,0,28.8,12.9,28.8,28.8
	S189.5,110,173.6,110L173.6,110z"/>
<line class="st2" x1="195.2" y1="110.6" x2="226.8" y2="154.9"/>
<line class="st1" x1="164.1" y1="56.4" x2="173.6" y2="82"/>
<line class="st1" x1="173.6" y1="81.7" x2="190.9" y2="62.2"/>
<circle class="st0" cx="7.7" cy="52.3" r="7.7"/>
<line class="st1" x1="7.7" y1="52.3" x2="43.7" y2="106.9"/>
</svg>
